<?xml version="1.0" encoding="utf-8"?>
<svg width="1280px" height="320px" viewBox="0 0 1280 320" version="1.1" 
    xmlns:xlink="http://www.w3.org/1999/xlink" 
    xmlns="http://www.w3.org/2000/svg">
    <desc>Callow Logo</desc>
    <defs>
        <rect width="1280" height="320" id="main" />
        <clipPath id="clip">
            <use xlink:href="#main" clip-rule="evenodd" />
        </clipPath>
    </defs>
    <g id="logo" clip-path="url(#clip)">
        <use xlink:href="#main" stroke="none" fill="#282A36" />
        <path d="M41.9849 0L28.4141 0L28.4141 2.12044L41.9849 2.12044L41.9849 0ZM45.3773 0L58.9482 0L58.9482 2.12044L45.3773 2.12044L45.3773 0ZM75.9118 0L62.3409 0L62.3409 2.12044L75.9118 2.12044L75.9118 0ZM79.3046 0L92.8753 0L92.8753 2.12044L79.3046 2.12044L79.3046 0ZM211.62 0L198.049 0L198.049 2.12044L211.62 2.12044L211.62 0ZM231.976 0L245.547 0L245.547 2.12044L231.976 2.12044L231.976 0ZM24.5973 10.7822L21.9114 10.7822L11.8746 37.3585L14.5605 37.3585L24.5973 10.7822ZM104.326 10.7822L101.781 10.7822L101.781 37.3585L104.326 37.3585L104.326 10.7822ZM189.143 10.7822L186.599 10.7822L186.599 37.3585L189.143 37.3585L189.143 10.7822ZM220.526 10.7822L223.07 10.7822L223.07 37.3585L220.526 37.3585L220.526 10.7822ZM256.997 10.7822L254.453 10.7822L254.453 37.3585L256.997 37.3585L256.997 10.7822ZM45.3773 34.9556L58.9482 34.9556L58.9482 37.076L45.3773 37.076L45.3773 34.9556ZM75.9118 34.9556L62.3409 34.9556L62.3409 37.076L75.9118 37.076L75.9118 34.9556ZM79.3046 34.9556L92.8753 34.9556L92.8753 37.076L79.3046 37.076L79.3046 34.9556ZM113.231 34.9556L126.802 34.9556L126.802 37.076L113.231 37.076L113.231 34.9556ZM143.766 34.9556L130.195 34.9556L130.195 37.076L143.766 37.076L143.766 34.9556ZM164.122 34.9556L177.693 34.9556L177.693 37.076L164.122 37.076L164.122 34.9556ZM282.867 34.9556L296.438 34.9556L296.438 37.076L282.867 37.076L282.867 34.9556ZM313.401 34.9556L299.83 34.9556L299.83 37.076L313.401 37.076L313.401 34.9556ZM316.794 34.9556L330.365 34.9556L330.365 37.076L316.794 37.076L316.794 34.9556ZM347.328 34.9556L333.758 34.9556L333.758 37.076L347.328 37.076L347.328 34.9556ZM350.721 34.9556L364.292 34.9556L364.292 37.076L350.721 37.076L350.721 34.9556ZM483.036 34.9556L469.466 34.9556L469.466 37.076L483.036 37.076L483.036 34.9556ZM486.429 34.9556L500 34.9556L500 37.076L486.429 37.076L486.429 34.9556ZM2.54453 45.7368L0 45.7368L0 72.3131L2.54453 72.3131L2.54453 45.7368ZM33.9271 45.7368L36.4717 45.7368L36.4717 72.3131L33.9271 72.3131L33.9271 45.7368ZM109.415 45.7368L106.729 45.7368L96.6923 72.3131L99.3781 72.3131L109.415 45.7368ZM186.599 45.7368L189.143 45.7368L189.143 72.3131L186.599 72.3131L186.599 45.7368ZM223.07 45.7368L220.526 45.7368L220.526 72.3131L223.07 72.3131L223.07 45.7368ZM254.453 45.7368L256.997 45.7368L256.997 72.3131L254.453 72.3131L254.453 45.7368ZM279.05 45.7368L276.364 45.7368L266.328 72.3131L269.013 72.3131L279.05 45.7368ZM344.218 72.3131L346.904 72.3131L336.867 45.7368L334.181 45.7368L344.218 72.3131ZM380.831 72.3131L378.145 72.3131L368.109 45.7368L370.795 45.7368L380.831 72.3131ZM414.758 45.7368L412.072 45.7368L402.036 72.3131L404.721 72.3131L414.758 45.7368ZM431.721 72.3131L429.036 72.3131L418.999 45.7368L421.685 45.7368L431.721 72.3131ZM465.649 45.7368L462.963 45.7368L452.926 72.3131L455.612 72.3131L465.649 45.7368ZM496.89 45.7368L499.576 45.7368L489.539 72.3131L486.854 72.3131L496.89 45.7368ZM153.379 46.6987L150.269 46.6987L153.944 50.8265L156.489 50.8265L153.379 46.6987ZM130.195 69.9106L143.766 69.9106L143.766 72.0311L130.195 72.0311L130.195 69.9106ZM299.83 69.9106L313.401 69.9106L313.401 72.0311L299.83 72.0311L299.83 69.9106ZM116.766 91.2949C116.766 89.9189 116.964 88.6325 117.359 87.4356C117.755 86.2388 118.321 85.1644 119.056 84.2126C119.791 83.2607 120.681 82.4455 121.727 81.767C122.774 81.0885 123.947 80.589 125.247 80.2686L125.247 82.6717C124.343 82.8791 123.523 83.2372 122.788 83.7461C122.053 84.255 121.431 84.8864 120.922 85.6403C120.413 86.3943 120.017 87.2472 119.734 88.199C119.452 89.1508 119.31 90.1828 119.31 91.2949L119.31 96.6666C119.31 97.7598 119.447 98.7776 119.72 99.7201C119.993 100.662 120.389 101.501 120.908 102.236C121.426 102.971 122.053 103.593 122.788 104.102C123.523 104.611 124.343 104.969 125.247 105.177L125.247 107.693C123.909 107.354 122.717 106.854 121.671 106.194C120.625 105.535 119.739 104.734 119.013 103.791C118.288 102.849 117.732 101.779 117.345 100.582C116.959 99.3855 116.766 98.0803 116.766 96.6666L116.766 91.2949ZM286.401 91.2949C286.401 89.9189 286.599 88.6325 286.994 87.4356C287.39 86.2388 287.956 85.1644 288.691 84.2126C289.426 83.2607 290.316 82.4455 291.362 81.767C292.409 81.0885 293.582 80.589 294.882 80.2686L294.882 82.6717C293.978 82.8791 293.158 83.2372 292.423 83.7461C291.688 84.255 291.066 84.8864 290.557 85.6403C290.048 86.3943 289.652 87.2472 289.369 88.199C289.087 89.1508 288.945 90.1828 288.945 91.2949L288.945 96.6666C288.945 97.7598 289.082 98.7776 289.355 99.7201C289.628 100.662 290.024 101.501 290.543 102.236C291.061 102.971 291.688 103.593 292.423 104.102C293.158 104.611 293.978 104.969 294.882 105.177L294.882 107.693C293.544 107.354 292.352 106.854 291.306 106.194C290.26 105.535 289.374 104.734 288.648 103.791C287.923 102.849 287.367 101.779 286.98 100.582C286.594 99.3855 286.401 98.0803 286.401 96.6666L286.401 91.2949ZM318.349 80.2686C319.649 80.589 320.823 81.0885 321.869 81.767C322.915 82.4455 323.805 83.2607 324.54 84.2126C325.275 85.1644 325.841 86.2388 326.237 87.4356C326.632 88.6325 326.83 89.9189 326.83 91.2949L326.83 96.6666C326.83 98.0803 326.637 99.3855 326.251 100.582C325.864 101.779 325.308 102.849 324.583 103.791C323.857 104.734 322.971 105.535 321.925 106.194C320.879 106.854 319.687 107.354 318.349 107.693L318.349 105.177C319.254 104.969 320.073 104.611 320.809 104.102C321.544 103.593 322.17 102.971 322.689 102.236C323.207 101.501 323.603 100.662 323.876 99.7201C324.149 98.7776 324.286 97.7598 324.286 96.6666L324.286 91.2949Q324.286 89.6268 323.862 88.199C323.579 87.2472 323.183 86.3943 322.674 85.6403C322.166 84.8864 321.544 84.255 320.809 83.7461C320.073 83.2372 319.254 82.8791 318.349 82.6717L318.349 80.2686ZM2.54453 80.6929L0 80.6929L0 107.269L2.54453 107.269L2.54453 80.6929ZM33.9271 80.6929L36.4717 80.6929L36.4717 107.269L33.9271 107.269L33.9271 80.6929ZM87.3622 80.6929L84.8177 80.6929L84.8177 107.269L87.3622 107.269L87.3622 80.6929ZM152.672 80.6929L155.216 80.6929L155.216 107.269L152.672 107.269L152.672 80.6929ZM189.143 80.6929L186.599 80.6929L186.599 107.269L189.143 107.269L189.143 80.6929ZM220.526 80.6929L223.07 80.6929L223.07 107.269L220.526 107.269L220.526 80.6929ZM256.997 80.6929L254.453 80.6929L254.453 107.269L256.997 107.269L256.997 80.6929ZM361.182 107.269L363.867 107.269L353.831 80.6929L351.145 80.6929L361.182 107.269ZM479.927 80.6929L482.612 80.6929L472.576 107.269L469.89 107.269L479.927 80.6929ZM384.196 83.8027L386.91 83.8027L390.812 99.7202C390.906 100.116 390.991 100.479 391.066 100.809C391.141 101.139 391.198 101.426 391.236 101.671C391.273 101.973 391.311 102.237 391.349 102.463L391.462 102.463C391.5 102.237 391.547 101.973 391.603 101.671C391.641 101.426 391.697 101.139 391.773 100.809C391.848 100.479 391.933 100.116 392.027 99.7202L396.014 83.8027L398.671 83.8027L393.13 104.159L389.568 104.159L384.196 83.8027ZM437.8 83.8027L435.086 83.8027L440.458 104.159L444.02 104.159L449.562 83.8027L446.904 83.8027L442.918 99.7202C442.823 100.116 442.739 100.479 442.663 100.809C442.588 101.139 442.531 101.426 442.494 101.671C442.437 101.973 442.39 102.237 442.352 102.463L442.239 102.463C442.201 102.237 442.164 101.973 442.126 101.671C442.088 101.426 442.032 101.139 441.956 100.809C441.881 100.479 441.796 100.116 441.702 99.7202L437.8 83.8027ZM58.9482 104.866L45.3773 104.866L45.3773 106.986L58.9482 106.986L58.9482 104.866ZM62.3409 104.866L75.9118 104.866L75.9118 106.986L62.3409 106.986L62.3409 104.866ZM143.766 104.866L130.195 104.866L130.195 106.986L143.766 106.986L143.766 104.866ZM313.401 104.866L299.83 104.866L299.83 106.986L313.401 106.986L313.401 104.866ZM21.9114 142.223L24.5973 142.223L14.5605 115.647L11.8746 115.647L21.9114 142.223ZM109.415 142.223L106.729 142.223L96.6923 115.647L99.3781 115.647L109.415 142.223ZM189.143 115.647L186.599 115.647L186.599 142.223L189.143 142.223L189.143 115.647ZM223.07 115.647L220.526 115.647L220.526 142.223L223.07 142.223L223.07 115.647ZM256.997 115.647L254.453 115.647L254.453 142.223L256.997 142.223L256.997 115.647ZM279.05 142.223L276.364 142.223L266.328 115.647L269.013 115.647L279.05 142.223ZM344.218 115.647L346.904 115.647L336.867 142.223L334.181 142.223L344.218 115.647ZM378.145 142.223L380.831 142.223L370.795 115.647L368.109 115.647L378.145 142.223ZM414.758 115.647L412.072 115.647L402.036 142.223L404.721 142.223L414.758 115.647ZM431.721 142.223L429.036 142.223L418.999 115.647L421.685 115.647L431.721 142.223ZM462.963 115.647L465.649 115.647L455.612 142.223L452.926 142.223L462.963 115.647ZM152.389 143.637L156.065 134.844L152.389 134.844L150.127 143.637L152.389 143.637ZM28.4141 139.82L41.9849 139.82L41.9849 141.941L28.4141 141.941L28.4141 139.82ZM58.9482 139.82L45.3773 139.82L45.3773 141.941L58.9482 141.941L58.9482 139.82ZM62.3409 139.82L75.9118 139.82L75.9118 141.941L62.3409 141.941L62.3409 139.82ZM92.8753 139.82L79.3046 139.82L79.3046 141.941L92.8753 141.941L92.8753 139.82ZM126.802 139.82L113.231 139.82L113.231 141.941L126.802 141.941L126.802 139.82ZM130.195 139.82L143.766 139.82L143.766 141.941L130.195 141.941L130.195 139.82ZM164.122 139.82L177.693 139.82L177.693 141.941L164.122 141.941L164.122 139.82ZM198.049 139.82L211.62 139.82L211.62 141.941L198.049 141.941L198.049 139.82ZM231.976 139.82L245.547 139.82L245.547 141.941L231.976 141.941L231.976 139.82ZM296.438 139.82L282.867 139.82L282.867 141.941L296.438 141.941L296.438 139.82ZM299.83 139.82L313.401 139.82L313.401 141.941L299.83 141.941L299.83 139.82ZM330.365 139.82L316.794 139.82L316.794 141.941L330.365 141.941L330.365 139.82ZM384.648 139.82L398.219 139.82L398.219 141.941L384.648 141.941L384.648 139.82ZM449.109 139.82L435.539 139.82L435.539 141.941L449.109 141.941L449.109 139.82Z" transform="translate(389.0248 87.91846)" id="text" fill="#FF79C6" fill-rule="evenodd" stroke="#FF79C6" stroke-width="2" stroke-linecap="round" stroke-linejoin="round" />
    </g>
</svg>