<?xml version="1.0" encoding="utf-8"?>
<svg width="1000px" height="400px" viewBox="0 0 1000 400" version="1.1" 
    xmlns:xlink="http://www.w3.org/1999/xlink" 
    xmlns="http://www.w3.org/2000/svg">
    <desc>Callow Logo</desc>
    <defs>
        <rect width="1000" height="400" id="artboard_1" />
        <clipPath id="clip_1">
            <use xlink:href="#artboard_1" clip-rule="evenodd" />
        </clipPath>
    </defs>
    <g id="Artboard" clip-path="url(#clip_1)">
        <use xlink:href="#artboard_1" stroke="none" fill="#FFFFFF" fill-opacity="0" />
        <g id="text" transform="translate(-6.103516E-05 -2.03952)">
            <g id="____------_-_">
                <path d="M95.7 86.6948L69.3 86.6948L69.3 90.8198L95.7 90.8198L95.7 86.6948ZM128.7 86.6948L102.3 86.6948L102.3 90.8198L128.7 90.8198L128.7 86.6948ZM135.3 86.6948L161.7 86.6948L161.7 90.8198L135.3 90.8198L135.3 86.6948ZM194.7 86.6948L168.3 86.6948L168.3 90.8198L194.7 90.8198L194.7 86.6948ZM399.3 86.6948L425.7 86.6948L425.7 90.8198L399.3 90.8198L399.3 86.6948ZM491.7 86.6948L465.3 86.6948L465.3 90.8198L491.7 90.8198L491.7 86.6948Z" />
            </g>
            <g id="/-___|__-_|-|-|-_____------__">
                <path d="M61.875 107.67L56.65 107.67L37.125 159.37L42.35 159.37L61.875 107.67ZM212.025 107.67L216.975 107.67L216.975 159.37L212.025 159.37L212.025 107.67ZM377.025 107.67L381.975 107.67L381.975 159.37L377.025 159.37L377.025 107.67ZM447.975 107.67L443.025 107.67L443.025 159.37L447.975 159.37L447.975 107.67ZM509.025 107.67L513.975 107.67L513.975 159.37L509.025 159.37L509.025 107.67ZM128.7 154.695L102.3 154.695L102.3 158.82L128.7 158.82L128.7 154.695ZM135.3 154.695L161.7 154.695L161.7 158.82L135.3 158.82L135.3 154.695ZM194.7 154.695L168.3 154.695L168.3 158.82L194.7 158.82L194.7 154.695ZM260.7 154.695L234.3 154.695L234.3 158.82L260.7 158.82L260.7 154.695ZM267.3 154.695L293.7 154.695L293.7 158.82L267.3 158.82L267.3 154.695ZM359.7 154.695L333.3 154.695L333.3 158.82L359.7 158.82L359.7 154.695ZM590.7 154.695L564.3 154.695L564.3 158.82L590.7 158.82L590.7 154.695ZM597.3 154.695L623.7 154.695L623.7 158.82L597.3 158.82L597.3 154.695ZM656.7 154.695L630.3 154.695L630.3 158.82L656.7 158.82L656.7 154.695ZM663.3 154.695L689.7 154.695L689.7 158.82L663.3 158.82L663.3 154.695ZM722.7 154.695L696.3 154.695L696.3 158.82L722.7 158.82L722.7 154.695ZM927.3 154.695L953.7 154.695L953.7 158.82L927.3 158.82L927.3 154.695ZM986.7 154.695L960.3 154.695L960.3 158.82L986.7 158.82L986.7 154.695Z" />
            </g>
            <g id="|-|---/-_`-|-|-|/-_-\-\-/\-/-/">
                <path d="M18.975 175.67L14.025 175.67L14.025 227.37L18.975 227.37L18.975 175.67ZM84.975 175.67L80.025 175.67L80.025 227.37L84.975 227.37L84.975 175.67ZM221.65 175.67L226.875 175.67L207.35 227.37L202.125 227.37L221.65 175.67ZM381.975 175.67L377.025 175.67L377.025 227.37L381.975 227.37L381.975 175.67ZM443.025 175.67L447.975 175.67L447.975 227.37L443.025 227.37L443.025 175.67ZM513.975 175.67L509.025 175.67L509.025 227.37L513.975 227.37L513.975 175.67ZM551.65 175.67L556.875 175.67L537.35 227.37L532.125 227.37L551.65 175.67ZM688.875 227.37L683.65 227.37L664.125 175.67L669.35 175.67L688.875 227.37ZM749.65 227.37L754.875 227.37L735.35 175.67L730.125 175.67L749.65 227.37ZM815.65 175.67L820.875 175.67L801.35 227.37L796.125 227.37L815.65 175.67ZM848.65 227.37L853.875 227.37L834.35 175.67L829.125 175.67L848.65 227.37ZM914.65 175.67L919.875 175.67L900.35 227.37L895.125 227.37L914.65 175.67ZM985.875 175.67L980.65 175.67L961.125 227.37L966.35 227.37L985.875 175.67ZM306.35 177.54L312.4 177.54L318.45 185.57L313.5 185.57L306.35 177.54ZM293.7 222.695L267.3 222.695L267.3 226.82L293.7 226.82L293.7 222.695ZM623.7 222.695L597.3 222.695L597.3 226.82L623.7 226.82L623.7 222.695Z" />
            </g>
            <g id="|-|__|-(_|-|-|-|-(_)-\-V--V-/">
                <path d="M242.33 256.787Q241.175 260.28 241.175 264.295L241.175 274.745Q241.175 278.87 242.303 282.362Q243.43 285.855 245.548 288.605Q247.665 291.355 250.717 293.28Q253.77 295.205 257.675 296.195L257.675 291.3Q255.035 290.695 252.89 289.21Q250.745 287.725 249.232 285.58Q247.72 283.435 246.923 280.685Q246.125 277.935 246.125 274.745L246.125 264.295Q246.125 261.05 246.95 258.272Q247.775 255.495 249.26 253.295Q250.745 251.095 252.89 249.61Q255.035 248.125 257.675 247.52L257.675 242.845Q253.88 243.78 250.827 245.76Q247.775 247.74 245.63 250.517Q243.485 253.295 242.33 256.787ZM572.33 256.787Q571.175 260.28 571.175 264.295L571.175 274.745Q571.175 278.87 572.302 282.362Q573.43 285.855 575.547 288.605Q577.665 291.355 580.718 293.28Q583.77 295.205 587.675 296.195L587.675 291.3Q585.035 290.695 582.89 289.21Q580.745 287.725 579.232 285.58Q577.72 283.435 576.922 280.685Q576.125 277.935 576.125 274.745L576.125 264.295Q576.125 261.05 576.95 258.272Q577.775 255.495 579.26 253.295Q580.745 251.095 582.89 249.61Q585.035 248.125 587.675 247.52L587.675 242.845Q583.88 243.78 580.828 245.76Q577.775 247.74 575.63 250.517Q573.485 253.295 572.33 256.787ZM640.172 245.76Q637.12 243.78 633.325 242.845L633.325 247.52Q635.965 248.125 638.11 249.61Q640.255 251.095 641.74 253.295Q643.225 255.495 644.05 258.272Q644.875 261.05 644.875 264.295L644.875 274.745Q644.875 277.935 644.078 280.685Q643.28 283.435 641.768 285.58Q640.255 287.725 638.11 289.21Q635.965 290.695 633.325 291.3L633.325 296.195Q637.23 295.205 640.282 293.28Q643.335 291.355 645.453 288.605Q647.57 285.855 648.698 282.362Q649.825 278.87 649.825 274.745L649.825 264.295Q649.825 260.28 648.67 256.787Q647.515 253.295 645.37 250.517Q643.225 247.74 640.172 245.76ZM18.975 243.67L14.025 243.67L14.025 295.37L18.975 295.37L18.975 243.67ZM84.975 243.67L80.025 243.67L80.025 295.37L84.975 295.37L84.975 243.67ZM179.025 243.67L183.975 243.67L183.975 295.37L179.025 295.37L179.025 243.67ZM315.975 243.67L311.025 243.67L311.025 295.37L315.975 295.37L315.975 243.67ZM377.025 243.67L381.975 243.67L381.975 295.37L377.025 295.37L377.025 243.67ZM447.975 243.67L443.025 243.67L443.025 295.37L447.975 295.37L447.975 243.67ZM509.025 243.67L513.975 243.67L513.975 295.37L509.025 295.37L509.025 243.67ZM721.875 295.37L716.65 295.37L697.125 243.67L702.35 243.67L721.875 295.37ZM952.875 243.67L947.65 243.67L928.125 295.37L933.35 295.37L952.875 243.67ZM766.7 249.72L761.42 249.72L771.87 289.32L778.8 289.32L789.58 249.72L784.41 249.72L776.655 280.685Q776.38 281.84 776.16 282.802Q775.94 283.765 775.83 284.48Q775.665 285.36 775.555 286.02L775.335 286.02Q775.225 285.36 775.115 284.48Q775.005 283.765 774.785 282.802Q774.565 281.84 774.29 280.685L766.7 249.72ZM860.42 249.72L865.7 249.72L873.29 280.685Q873.565 281.84 873.785 282.802Q874.005 283.765 874.115 284.48Q874.225 285.36 874.335 286.02L874.555 286.02Q874.665 285.36 874.83 284.48Q874.94 283.765 875.16 282.802Q875.38 281.84 875.655 280.685L883.41 249.72L888.58 249.72L877.8 289.32L870.87 289.32L860.42 249.72ZM102.3 290.695L128.7 290.695L128.7 294.82L102.3 294.82L102.3 290.695ZM161.7 290.695L135.3 290.695L135.3 294.82L161.7 294.82L161.7 290.695ZM267.3 290.695L293.7 290.695L293.7 294.82L267.3 294.82L267.3 290.695ZM597.3 290.695L623.7 290.695L623.7 294.82L597.3 294.82L597.3 290.695Z" />
            </g>
            <g id="\____\__,_|_|_|\___/-\_/\_/">
                <path d="M56.65 363.37L61.875 363.37L42.35 311.67L37.125 311.67L56.65 363.37ZM221.65 363.37L226.875 363.37L207.35 311.67L202.125 311.67L221.65 363.37ZM377.025 311.67L381.975 311.67L381.975 363.37L377.025 363.37L377.025 311.67ZM443.025 311.67L447.975 311.67L447.975 363.37L443.025 363.37L443.025 311.67ZM509.025 311.67L513.975 311.67L513.975 363.37L509.025 363.37L509.025 311.67ZM551.65 363.37L556.875 363.37L537.35 311.67L532.125 311.67L551.65 363.37ZM688.875 311.67L683.65 311.67L664.125 363.37L669.35 363.37L688.875 311.67ZM754.875 363.37L749.65 363.37L730.125 311.67L735.35 311.67L754.875 363.37ZM815.65 311.67L820.875 311.67L801.35 363.37L796.125 363.37L815.65 311.67ZM848.65 363.37L853.875 363.37L834.35 311.67L829.125 311.67L848.65 363.37ZM919.875 311.67L914.65 311.67L895.125 363.37L900.35 363.37L919.875 311.67ZM317.625 349.015L310.475 366.12L306.075 366.12L310.475 349.015L317.625 349.015ZM95.7 358.695L69.3 358.695L69.3 362.82L95.7 362.82L95.7 358.695ZM102.3 358.695L128.7 358.695L128.7 362.82L102.3 362.82L102.3 358.695ZM161.7 358.695L135.3 358.695L135.3 362.82L161.7 362.82L161.7 358.695ZM168.3 358.695L194.7 358.695L194.7 362.82L168.3 362.82L168.3 358.695ZM234.3 358.695L260.7 358.695L260.7 362.82L234.3 362.82L234.3 358.695ZM293.7 358.695L267.3 358.695L267.3 362.82L293.7 362.82L293.7 358.695ZM359.7 358.695L333.3 358.695L333.3 362.82L359.7 362.82L359.7 358.695ZM425.7 358.695L399.3 358.695L399.3 362.82L425.7 362.82L425.7 358.695ZM491.7 358.695L465.3 358.695L465.3 362.82L491.7 362.82L491.7 358.695ZM564.3 358.695L590.7 358.695L590.7 362.82L564.3 362.82L564.3 358.695ZM623.7 358.695L597.3 358.695L597.3 362.82L623.7 362.82L623.7 358.695ZM630.3 358.695L656.7 358.695L656.7 362.82L630.3 362.82L630.3 358.695ZM788.7 358.695L762.3 358.695L762.3 362.82L788.7 362.82L788.7 358.695ZM861.3 358.695L887.7 358.695L887.7 362.82L861.3 362.82L861.3 358.695Z" />
            </g>
        </g>
    </g>
</svg>